<svg width="26" height="26" viewBox="0 0 26 26" fill="none" xmlns="http://www.w3.org/2000/svg">
<path d="M14.0833 8.66667C14.9453 8.66667 15.7719 9.00908 16.3814 9.61857C16.9909 10.2281 17.3333 11.0547 17.3333 11.9167C17.3333 12.204 17.4475 12.4795 17.6506 12.6827C17.8538 12.8859 18.1293 13 18.4167 13C18.704 13 18.9795 12.8859 19.1827 12.6827C19.3859 12.4795 19.5 12.204 19.5 11.9167C19.5 10.4801 18.9293 9.10233 17.9135 8.0865C16.8977 7.07068 15.5199 6.5 14.0833 6.5C13.796 6.5 13.5205 6.61414 13.3173 6.8173C13.1141 7.02047 13 7.29602 13 7.58333C13 7.87065 13.1141 8.1462 13.3173 8.34937C13.5205 8.55253 13.796 8.66667 14.0833 8.66667Z" fill="#3800D2"/>
<path d="M14.0834 4.33329C16.0946 4.33329 18.0234 5.13225 19.4456 6.5544C20.8677 7.97655 21.6667 9.9054 21.6667 11.9166C21.6667 12.2039 21.7808 12.4795 21.984 12.6827C22.1872 12.8858 22.4627 13 22.75 13C23.0373 13 23.3129 12.8858 23.5161 12.6827C23.7192 12.4795 23.8334 12.2039 23.8334 11.9166C23.8334 9.33077 22.8061 6.85081 20.9776 5.02233C19.1492 3.19386 16.6692 2.16663 14.0834 2.16663C13.796 2.16663 13.5205 2.28076 13.3173 2.48393C13.1142 2.68709 13 2.96264 13 3.24996C13 3.53728 13.1142 3.81283 13.3173 4.01599C13.5205 4.21916 13.796 4.33329 14.0834 4.33329ZM23.5625 17.2358C23.5029 17.0619 23.4001 16.906 23.2636 16.7828C23.1272 16.6596 22.9616 16.5732 22.7825 16.5316L16.2825 15.0475C16.1061 15.0075 15.9224 15.0123 15.7483 15.0615C15.5743 15.1107 15.4152 15.2027 15.2859 15.3291C15.1342 15.47 15.1234 15.4808 14.4192 16.8241C12.0827 15.7475 10.2104 13.8676 9.14335 11.5266C10.5192 10.8333 10.53 10.8333 10.6709 10.6708C10.7973 10.5414 10.8893 10.3824 10.9385 10.2083C10.9877 10.0342 10.9925 9.85056 10.9525 9.67413L9.46835 3.24996C9.4268 3.07088 9.34037 2.90532 9.21718 2.76886C9.09399 2.63241 8.9381 2.52955 8.76419 2.46996C8.51119 2.3796 8.24994 2.31428 7.98419 2.27496C7.71038 2.21147 7.43096 2.17518 7.15002 2.16663C5.82836 2.16663 4.56083 2.69165 3.62627 3.62621C2.69172 4.56077 2.16669 5.8283 2.16669 7.14996C2.17242 11.5729 3.93196 15.813 7.05945 18.9405C10.1869 22.068 14.4271 23.8276 18.85 23.8333C19.5044 23.8333 20.1525 23.7044 20.7571 23.454C21.3617 23.2035 21.911 22.8365 22.3738 22.3737C22.8365 21.911 23.2036 21.3616 23.454 20.757C23.7045 20.1524 23.8334 19.5044 23.8334 18.85C23.8337 18.5742 23.812 18.2989 23.7684 18.0266C23.7228 17.7575 23.654 17.4929 23.5625 17.2358Z" fill="#3800D2"/>
</svg>
