<svg width="67" height="71" viewBox="0 0 67 71" fill="none" xmlns="http://www.w3.org/2000/svg">
<path d="M33.5 0.908361L41.875 13.9734L37.6875 13.9734L37.6875 22.6833L29.3125 22.6833L29.3125 13.9734L25.125 13.9734L33.5 0.908361Z" fill="white"/>
<path d="M4.18753 66.2334L4.18753 31.3934L62.8125 31.3934L62.8125 66.2334L4.18753 66.2334ZM3.05176e-05 70.5884L67 70.5884L67 27.0384L3.43248e-05 27.0384L3.05176e-05 70.5884Z" fill="white"/>
<path d="M33.5 61.8782C30.1682 61.8782 26.9729 60.5017 24.617 58.0515C22.2611 55.6014 20.9375 52.2782 20.9375 48.8132C20.9375 45.3481 22.2611 42.025 24.617 39.5748C26.9729 37.1247 30.1682 35.7482 33.5 35.7482L12.5625 35.7482L12.5625 40.1032L8.37503 40.1032L8.37503 57.5232L12.5625 57.5232L12.5625 61.8782L33.5 61.8782Z" fill="white"/>
<path d="M46.0625 48.8134C46.0625 52.2785 44.739 55.6016 42.383 58.0518C40.0271 60.5019 36.8318 61.8784 33.5 61.8784L54.4375 61.8784L54.4375 57.5234L58.625 57.5234L58.625 40.1034L54.4375 40.1034L54.4375 35.7484L33.5 35.7484C36.8318 35.7484 40.0271 37.1249 42.383 39.5751C44.739 42.0252 46.0625 45.3484 46.0625 48.8134Z" fill="white"/>
</svg>
