<svg width="67" height="69" viewBox="0 0 67 69" fill="none" xmlns="http://www.w3.org/2000/svg">
<path d="M33.5 68.9805L25.2091 56.0466H29.3546V47.4241H37.6455V56.0466H41.7909L33.5 68.9805Z" fill="white"/>
<path d="M62.5183 4.31128V38.8015H4.48182V4.31128H62.5183ZM66.6637 0H0.336365V43.1128H66.6637V0Z" fill="white"/>
<path d="M33.5 8.62256C36.7983 8.62256 39.9616 9.98523 42.2939 12.4108C44.6261 14.8364 45.9364 18.1261 45.9364 21.5564C45.9364 24.9867 44.6261 28.2764 42.2939 30.702C39.9616 33.1276 36.7983 34.4902 33.5 34.4902H54.2273V30.1789H58.3728V12.9338H54.2273V8.62256H33.5Z" fill="white"/>
<path d="M21.0637 21.5564C21.0637 18.1261 22.3739 14.8364 24.7062 12.4108C27.0385 9.98523 30.2017 8.62256 33.5 8.62256H12.7727V12.9338H8.62729V30.1789H12.7727V34.4902H33.5C30.2017 34.4902 27.0385 33.1276 24.7062 30.702C22.3739 28.2764 21.0637 24.9867 21.0637 21.5564Z" fill="white"/>
</svg>
