<svg width="34" height="34" viewBox="0 0 34 34" fill="none" xmlns="http://www.w3.org/2000/svg">
<path d="M29.75 8.5H22.1297L18.5024 4.87262C18.104 4.47408 17.5635 4.25012 17 4.25H4.25C3.68641 4.25 3.14591 4.47388 2.7474 4.8724C2.34888 5.27091 2.125 5.81141 2.125 6.375V27.625C2.125 28.1886 2.34888 28.7291 2.7474 29.1276C3.14591 29.5261 3.68641 29.75 4.25 29.75H29.75C30.3136 29.75 30.8541 29.5261 31.2526 29.1276C31.6511 28.7291 31.875 28.1886 31.875 27.625V10.625C31.875 10.0614 31.6511 9.52091 31.2526 9.1224C30.8541 8.72388 30.3136 8.5 29.75 8.5ZM8.5 27.625V14.875H17V21.4306L14.2481 18.6894L12.75 20.1875L18.0625 25.5L23.375 20.1875L21.8769 18.6894L19.125 21.4306V14.875C19.1244 14.3116 18.9004 13.7714 18.502 13.373C18.1036 12.9746 17.5634 12.7506 17 12.75H8.5C7.93659 12.7506 7.39641 12.9746 6.99802 13.373C6.59963 13.7714 6.37556 14.3116 6.375 14.875V27.625H4.25V6.375H17L21.25 10.625H29.75V12.75H23.375V14.875H29.75V27.625H8.5Z" fill="#3800D2"/>
</svg>
