<svg width="33" height="27" viewBox="0 0 33 27" fill="none" xmlns="http://www.w3.org/2000/svg">
<path d="M29.75 26.5H3.75C2.88805 26.5 2.0614 26.1576 1.4519 25.5481C0.84241 24.9386 0.5 24.112 0.5 23.25V3.60863C0.536453 2.77141 0.89489 1.98063 1.50048 1.40139C2.10606 0.822145 2.91199 0.499208 3.75 0.500001H29.75C30.612 0.500001 31.4386 0.842411 32.0481 1.4519C32.6576 2.0614 33 2.88805 33 3.75V23.25C33 24.112 32.6576 24.9386 32.0481 25.5481C31.4386 26.1576 30.612 26.5 29.75 26.5ZM3.75 6.7855V23.25H29.75V6.7855L16.75 15.45L3.75 6.7855ZM5.05 3.75L16.75 11.55L28.45 3.75H5.05Z" fill="white"/>
</svg>
