<svg width="29" height="34" viewBox="0 0 29 34" fill="none" xmlns="http://www.w3.org/2000/svg">
<path d="M14.25 0.375L0 5.125V19.375C0 27.2459 6.3791 33.625 14.25 33.625C22.1209 33.625 28.5 27.2459 28.5 19.375V5.125L14.25 0.375ZM25.8281 19.375C25.8281 25.7689 20.6439 30.9531 14.25 30.9531C7.85605 30.9531 2.67188 25.7689 2.67188 19.375V7.12891L14.25 3.04688L25.8281 7.12891V19.375Z" fill="#00D62F"/>
<path d="M9.29207 15.6307C9.16825 15.5063 9.02107 15.4076 8.859 15.3402C8.69693 15.2729 8.52314 15.2382 8.34763 15.2382C8.17212 15.2382 7.99834 15.2729 7.83627 15.3402C7.67419 15.4076 7.52702 15.5063 7.4032 15.6307C7.27881 15.7545 7.18011 15.9017 7.11276 16.0637C7.04541 16.2258 7.01074 16.3996 7.01074 16.5751C7.01074 16.7506 7.04541 16.9244 7.11276 17.0865C7.18011 17.2485 7.27881 17.3957 7.4032 17.5195L12.2052 22.3215L12.2831 22.3994C12.4002 22.5168 12.5393 22.6099 12.6925 22.6734C12.8456 22.7369 13.0098 22.7696 13.1756 22.7696C13.3414 22.7696 13.5055 22.7369 13.6587 22.6734C13.8118 22.6099 13.9509 22.5168 14.068 22.3994L22.362 14.1055C22.4793 13.9883 22.5724 13.8492 22.6359 13.6961C22.6995 13.5429 22.7322 13.3788 22.7322 13.213C22.7322 13.0472 22.6995 12.883 22.6359 12.7299C22.5724 12.5767 22.4793 12.4376 22.362 12.3205L22.2581 12.2166C22.141 12.0993 22.0018 12.0062 21.8487 11.9426C21.6956 11.8791 21.5314 11.8464 21.3656 11.8464C21.1998 11.8464 21.0356 11.8791 20.8825 11.9426C20.7294 12.0062 20.5902 12.0993 20.4731 12.2166L13.1737 19.5123L9.29207 15.6307Z" fill="#00D62F"/>
</svg>
