<svg width="27" height="28" viewBox="0 0 27 28" fill="none" xmlns="http://www.w3.org/2000/svg">
<path d="M25.4317 22.8453C24.7685 21.2744 23.8061 19.8475 22.5981 18.6441C21.3938 17.4373 19.9671 16.475 18.397 15.8105C18.3829 15.8035 18.3688 15.8 18.3548 15.793C20.545 14.2109 21.9688 11.634 21.9688 8.72656C21.9688 3.91016 18.0665 0.0078125 13.2501 0.0078125C8.43368 0.0078125 4.53134 3.91016 4.53134 8.72656C4.53134 11.634 5.95517 14.2109 8.1454 15.7965C8.13134 15.8035 8.11728 15.807 8.10321 15.8141C6.52821 16.4785 5.11493 17.4312 3.90204 18.6477C2.69516 19.852 1.73292 21.2786 1.06845 22.8488C0.415674 24.386 0.0636181 26.0341 0.0313379 27.7039C0.0303996 27.7414 0.0369809 27.7788 0.0506943 27.8137C0.0644078 27.8486 0.0849757 27.8805 0.111186 27.9073C0.137397 27.9342 0.168719 27.9556 0.203309 27.9701C0.237898 27.9847 0.275054 27.9922 0.312588 27.9922H2.42196C2.57665 27.9922 2.6997 27.8691 2.70321 27.718C2.77353 25.0039 3.86337 22.4621 5.78993 20.5355C7.78329 18.5422 10.4306 17.4453 13.2501 17.4453C16.0696 17.4453 18.7169 18.5422 20.7102 20.5355C22.6368 22.4621 23.7267 25.0039 23.797 27.718C23.8005 27.8727 23.9235 27.9922 24.0782 27.9922H26.1876C26.2251 27.9922 26.2623 27.9847 26.2969 27.9701C26.3315 27.9556 26.3628 27.9342 26.389 27.9073C26.4152 27.8805 26.4358 27.8486 26.4495 27.8137C26.4632 27.7788 26.4698 27.7414 26.4688 27.7039C26.4337 26.0234 26.0856 24.3887 25.4317 22.8453ZM13.2501 14.7734C11.6364 14.7734 10.1177 14.1441 8.97509 13.0016C7.83251 11.859 7.20321 10.3402 7.20321 8.72656C7.20321 7.11289 7.83251 5.59414 8.97509 4.45156C10.1177 3.30898 11.6364 2.67969 13.2501 2.67969C14.8638 2.67969 16.3825 3.30898 17.5251 4.45156C18.6677 5.59414 19.297 7.11289 19.297 8.72656C19.297 10.3402 18.6677 11.859 17.5251 13.0016C16.3825 14.1441 14.8638 14.7734 13.2501 14.7734Z" fill="white"/>
</svg>
