<svg width="37" height="28" viewBox="0 0 37 28" fill="none" xmlns="http://www.w3.org/2000/svg">
<path d="M25 8.375C25 8.07663 25.1185 7.79048 25.3295 7.57951C25.5405 7.36853 25.8266 7.25 26.125 7.25H30.625C30.9234 7.25 31.2095 7.36853 31.4205 7.57951C31.6315 7.79048 31.75 8.07663 31.75 8.375V10.625C31.75 10.9234 31.6315 11.2095 31.4205 11.4205C31.2095 11.6315 30.9234 11.75 30.625 11.75H26.125C25.8266 11.75 25.5405 11.6315 25.3295 11.4205C25.1185 11.2095 25 10.9234 25 10.625V8.375Z" fill="white"/>
<path d="M4.75 0.5C3.55653 0.5 2.41193 0.974106 1.56802 1.81802C0.724106 2.66193 0.25 3.80653 0.25 5L0.25 23C0.25 24.1935 0.724106 25.3381 1.56802 26.182C2.41193 27.0259 3.55653 27.5 4.75 27.5H31.75C32.9435 27.5 34.0881 27.0259 34.932 26.182C35.7759 25.3381 36.25 24.1935 36.25 23V5C36.25 3.80653 35.7759 2.66193 34.932 1.81802C34.0881 0.974106 32.9435 0.5 31.75 0.5H4.75ZM34 5V16.25H2.5V5C2.5 4.40326 2.73705 3.83097 3.15901 3.40901C3.58097 2.98705 4.15326 2.75 4.75 2.75H31.75C32.3467 2.75 32.919 2.98705 33.341 3.40901C33.7629 3.83097 34 4.40326 34 5ZM31.75 25.25H4.75C4.15326 25.25 3.58097 25.0129 3.15901 24.591C2.73705 24.169 2.5 23.5967 2.5 23V20.75H34V23C34 23.5967 33.7629 24.169 33.341 24.591C32.919 25.0129 32.3467 25.25 31.75 25.25Z" fill="white"/>
</svg>
